<?xml version="1.0" encoding="UTF-8"?>
<svg width="12px" height="12px" viewBox="0 0 12 12" version="1.1" xmlns="http://www.w3.org/2000/svg" xmlns:xlink="http://www.w3.org/1999/xlink">
    <title>小图标/加号</title>
    <g id="Symbols" stroke="none" stroke-width="1" fill="none" fill-rule="evenodd">
        <g id="tabs/icon+label" transform="translate(-210.000000, -9.000000)" fill-rule="nonzero">
            <g id="icon/more-tabs" transform="translate(186.000000, 0.000000)">
                <g id="icon" transform="translate(10.000000, 0.000000)">
                    <g id="icon" transform="translate(12.000000, 7.000000)">
                        <rect id="Rectangle" x="0" y="0" width="16" height="16"></rect>
                        <path d="M7.53125,2.375 L8.46875,2.375 C8.55208333,2.375 8.59375,2.41666667 8.59375,2.5 L8.59375,13.5 C8.59375,13.5833333 8.55208333,13.625 8.46875,13.625 L7.53125,13.625 C7.44791667,13.625 7.40625,13.5833333 7.40625,13.5 L7.40625,2.5 C7.40625,2.41666667 7.44791667,2.375 7.53125,2.375 Z M2.75,7.40625 L13.25,7.40625 C13.3333333,7.40625 13.375,7.44791667 13.375,7.53125 L13.375,8.46875 C13.375,8.55208333 13.3333333,8.59375 13.25,8.59375 L2.75,8.59375 C2.66666667,8.59375 2.625,8.55208333 2.625,8.46875 L2.625,7.53125 C2.625,7.44791667 2.66666667,7.40625 2.75,7.40625 Z" fill="#2D3040"></path>
                    </g>
                </g>
            </g>
        </g>
    </g>
</svg>