<?xml version="1.0" encoding="UTF-8"?>
<svg width="105px" height="26px" viewBox="0 0 105 26" version="1.1" xmlns="http://www.w3.org/2000/svg" xmlns:xlink="http://www.w3.org/1999/xlink">
    <title>button /align-middle</title>
    <g id="Web+App-业务组件" stroke="none" stroke-width="1" fill="none" fill-rule="evenodd">
        <g id="7.1.2-Spacer--drag-button-component-to-canvas" transform="translate(-626.000000, -753.000000)">
            <g id="align" transform="translate(499.000000, 753.000000)">
                <g id="button-/align-middle" transform="translate(127.000000, 0.000000)">
                    <rect id="Bg" fill="#FFFFFF" x="0" y="0" width="105" height="26" rx="4"></rect>
                    <g id="101_通用/图标Icons/Office/align-left" transform="translate(45.132530, 5.000000)" fill-rule="nonzero">
                        <rect id="Rectangle" x="0" y="0" width="16" height="16"></rect>
                        <path d="M4.125,3.59375 L11.875,3.59375 C11.94375,3.59375 12,3.5375 12,3.46875 L12,2.59375 C12,2.525 11.94375,2.46875 11.875,2.46875 L4.125,2.46875 C4.05625,2.46875 4,2.525 4,2.59375 L4,3.46875 C4,3.5375 4.05625,3.59375 4.125,3.59375 Z M11.875,10.21875 C11.94375,10.21875 12,10.1625 12,10.09375 L12,9.21875 C12,9.15 11.94375,9.09375 11.875,9.09375 L4.125,9.09375 C4.05625,9.09375 4,9.15 4,9.21875 L4,10.09375 C4,10.1625 4.05625,10.21875 4.125,10.21875 L11.875,10.21875 Z M14.125,12.40625 L1.875,12.40625 C1.80625,12.40625 1.75,12.4625 1.75,12.53125 L1.75,13.40625 C1.75,13.475 1.80625,13.53125 1.875,13.53125 L14.125,13.53125 C14.19375,13.53125 14.25,13.475 14.25,13.40625 L14.25,12.53125 C14.25,12.4625 14.19375,12.40625 14.125,12.40625 Z M14.125,5.78125 L1.875,5.78125 C1.80625,5.78125 1.75,5.8375 1.75,5.90625 L1.75,6.78125 C1.75,6.85 1.80625,6.90625 1.875,6.90625 L14.125,6.90625 C14.19375,6.90625 14.25,6.85 14.25,6.78125 L14.25,5.90625 C14.25,5.8375 14.19375,5.78125 14.125,5.78125 Z" id="Shape" fill="#2D3040"></path>
                    </g>
                </g>
            </g>
        </g>
    </g>
</svg>