<?xml version="1.0" encoding="UTF-8"?>
<svg width="105px" height="26px" viewBox="0 0 105 26" version="1.1" xmlns="http://www.w3.org/2000/svg" xmlns:xlink="http://www.w3.org/1999/xlink">
    <title>button /align-left</title>
    <g id="Web+App-业务组件" stroke="none" stroke-width="1" fill="none" fill-rule="evenodd">
        <g id="7.1.2-Spacer--drag-button-component-to-canvas" transform="translate(-499.000000, -759.000000)">
            <g id="align" transform="translate(499.000000, 753.000000)">
                <g id="button-/align-left" transform="translate(0.000000, 6.000000)">
                    <rect id="Bg" fill="#E8EEFC" x="0" y="0" width="105" height="26" rx="4"></rect>
                    <g id="101_通用/图标Icons/Office/align-left" transform="translate(45.132530, 5.000000)" fill-rule="nonzero">
                        <rect id="Rectangle" x="0" y="0" width="16" height="16"></rect>
                        <path d="M1.875,3.59375 L9.625,3.59375 C9.69375,3.59375 9.75,3.5375 9.75,3.46875 L9.75,2.59375 C9.75,2.525 9.69375,2.46875 9.625,2.46875 L1.875,2.46875 C1.80625,2.46875 1.75,2.525 1.75,2.59375 L1.75,3.46875 C1.75,3.5375 1.80625,3.59375 1.875,3.59375 Z M1.875,10.21875 L9.625,10.21875 C9.69375,10.21875 9.75,10.1625 9.75,10.09375 L9.75,9.21875 C9.75,9.15 9.69375,9.09375 9.625,9.09375 L1.875,9.09375 C1.80625,9.09375 1.75,9.15 1.75,9.21875 L1.75,10.09375 C1.75,10.1625 1.80625,10.21875 1.875,10.21875 Z M14.125,12.40625 L1.875,12.40625 C1.80625,12.40625 1.75,12.4625 1.75,12.53125 L1.75,13.40625 C1.75,13.475 1.80625,13.53125 1.875,13.53125 L14.125,13.53125 C14.19375,13.53125 14.25,13.475 14.25,13.40625 L14.25,12.53125 C14.25,12.4625 14.19375,12.40625 14.125,12.40625 Z M14.125,5.78125 L1.875,5.78125 C1.80625,5.78125 1.75,5.8375 1.75,5.90625 L1.75,6.78125 C1.75,6.85 1.80625,6.90625 1.875,6.90625 L14.125,6.90625 C14.19375,6.90625 14.25,6.85 14.25,6.78125 L14.25,5.90625 C14.25,5.8375 14.19375,5.78125 14.125,5.78125 Z" id="Shape" fill="#2D3040"></path>
                    </g>
                </g>
            </g>
        </g>
    </g>
</svg>