<?xml version="1.0" encoding="UTF-8"?>
<svg width="105px" height="26px" viewBox="0 0 105 26" version="1.1" xmlns="http://www.w3.org/2000/svg" xmlns:xlink="http://www.w3.org/1999/xlink">
    <title>button /align-right</title>
    <g id="Web+App-业务组件" stroke="none" stroke-width="1" fill="none" fill-rule="evenodd">
        <g id="7.1.2-Spacer--drag-button-component-to-canvas" transform="translate(-745.000000, -753.000000)">
            <g id="align" transform="translate(499.000000, 753.000000)">
                <g id="button-/align-right" transform="translate(246.000000, 0.000000)">
                    <rect id="Bg" fill="#FFFFFF" x="0" y="0" width="105" height="26" rx="4"></rect>
                    <g id="101_通用/图标Icons/Office/align-left" transform="translate(45.132530, 5.000000)" fill-rule="nonzero">
                        <rect id="Rectangle" x="0" y="0" width="16" height="16"></rect>
                        <path d="M14.125,2.46875 L6.375,2.46875 C6.30625,2.46875 6.25,2.525 6.25,2.59375 L6.25,3.46875 C6.25,3.5375 6.30625,3.59375 6.375,3.59375 L14.125,3.59375 C14.19375,3.59375 14.25,3.5375 14.25,3.46875 L14.25,2.59375 C14.25,2.525 14.19375,2.46875 14.125,2.46875 Z M14.125,9.09375 L6.375,9.09375 C6.30625,9.09375 6.25,9.15 6.25,9.21875 L6.25,10.09375 C6.25,10.1625 6.30625,10.21875 6.375,10.21875 L14.125,10.21875 C14.19375,10.21875 14.25,10.1625 14.25,10.09375 L14.25,9.21875 C14.25,9.15 14.19375,9.09375 14.125,9.09375 Z M14.125,12.40625 L1.875,12.40625 C1.80625,12.40625 1.75,12.4625 1.75,12.53125 L1.75,13.40625 C1.75,13.475 1.80625,13.53125 1.875,13.53125 L14.125,13.53125 C14.19375,13.53125 14.25,13.475 14.25,13.40625 L14.25,12.53125 C14.25,12.4625 14.19375,12.40625 14.125,12.40625 Z M14.125,5.78125 L1.875,5.78125 C1.80625,5.78125 1.75,5.8375 1.75,5.90625 L1.75,6.78125 C1.75,6.85 1.80625,6.90625 1.875,6.90625 L14.125,6.90625 C14.19375,6.90625 14.25,6.85 14.25,6.78125 L14.25,5.90625 C14.25,5.8375 14.19375,5.78125 14.125,5.78125 Z" id="Shape" fill="#2D3040"></path>
                    </g>
                </g>
            </g>
        </g>
    </g>
</svg>